<mxfile host="app.diagrams.net" modified="2024-06-24T02:17:53.468Z" agent="Mozilla/5.0 (Macintosh; Intel Mac OS X 10_15_7) AppleWebKit/537.36 (KHTML, like Gecko) Chrome/125.0.0.0 Safari/537.36" version="24.6.0" etag="LoEGgCoMKGr1bZxuzWok" type="github">
  <diagram name="第 1 页" id="z94kgEaSRV86m_BxRSe0">
    <mxGraphModel>
      <root>
        <mxCell id="0" />
        <mxCell id="1" parent="0" />
      </root>
    </mxGraphModel>
  </diagram>
</mxfile>
